<svg width="702" height="818" viewBox="0 0 702 818" fill="none" xmlns="http://www.w3.org/2000/svg">
<path fill-rule="evenodd" clip-rule="evenodd" d="M276.933 84H424.4C451.683 83.9997 474.203 83.9993 492.537 85.5217C511.58 87.1033 529.077 90.4987 545.463 99.0117C569.817 111.662 589.673 131.518 602.323 155.87C610.833 172.258 614.23 189.753 615.813 208.798C617.333 227.131 617.333 249.649 617.333 276.933V571.423C617.333 603.517 617.333 629.85 615.577 649.863C613.917 668.727 610.26 690.96 595.6 707.053C577.583 726.823 551.177 736.747 524.6 733.73C502.97 731.273 485.577 716.947 471.907 703.843C457.407 689.943 440.063 670.123 418.93 645.97L406.357 631.6C391.873 615.047 382.403 604.27 374.557 596.737C366.957 589.437 363.353 587.69 361.54 587.063C354.493 584.633 346.84 584.633 339.793 587.063C337.98 587.69 334.377 589.437 326.777 596.737C318.93 604.27 309.46 615.047 294.977 631.6L282.403 645.97C261.27 670.123 243.928 689.94 229.425 703.843C215.757 716.947 198.363 731.273 176.732 733.73C150.157 736.747 123.749 726.823 105.735 707.053C91.0727 690.96 87.416 668.727 85.7584 649.863C83.999 629.85 83.9994 603.517 84 571.423V276.933C83.9997 249.649 83.9994 227.131 85.5217 208.798C87.1034 189.753 90.4987 172.258 99.0117 155.87C111.662 131.518 131.518 111.662 155.87 99.0117C172.258 90.4987 189.753 87.1033 208.798 85.5217C227.131 83.9993 249.649 83.9997 276.933 84ZM214.315 151.96C199.467 153.193 191.888 155.427 186.602 158.172C174.426 164.498 164.498 174.426 158.172 186.602C155.427 191.888 153.193 199.467 151.96 214.315C150.693 229.562 150.667 249.299 150.667 278.333V569.753C150.667 603.927 150.698 627.293 152.169 644.027C153.379 657.797 155.309 662.12 155.482 662.647C158.907 666.11 163.678 667.903 168.535 667.55C169.011 667.27 173.312 665.287 183.29 655.72C195.415 644.097 210.826 626.53 233.33 600.813L245.731 586.64C259.031 571.44 270.41 558.433 280.606 548.643C291.287 538.39 303.107 529.197 318.047 524.043C339.183 516.75 362.15 516.75 383.287 524.043C398.227 529.197 410.047 538.39 420.727 548.643C430.923 558.433 442.303 571.44 455.603 586.64L468.003 600.813C490.507 626.53 505.92 644.097 518.043 655.72C528.02 665.287 532.323 667.27 532.797 667.55C537.657 667.903 542.427 666.11 545.85 662.647C546.023 662.12 547.953 657.797 549.163 644.027C550.637 627.293 550.667 603.927 550.667 569.753V278.333C550.667 249.299 550.64 229.562 549.373 214.315C548.14 199.467 545.907 191.888 543.16 186.602C536.837 174.426 526.907 164.498 514.73 158.172C509.447 155.427 501.867 153.193 487.017 151.96C471.77 150.693 452.033 150.667 423 150.667H278.333C249.299 150.667 229.562 150.693 214.315 151.96Z" fill="#525E85"/>
<rect x="130" y="140" width="443" height="391" fill="#525E85"/>
<path d="M129.927 482.195L356.258 500.449L146.806 708.633L129.927 482.195Z" fill="#525E85"/>
<path d="M571.351 493.401L570.424 720.465L346.862 527.513L571.351 493.401Z" fill="#525E85"/>
</svg>
